<svg width="12" height="8" viewBox="0 0 12 8" fill="none" xmlns="http://www.w3.org/2000/svg">
<path d="M11.4372 4.02132C10.4219 2.02843 8.39144 0.674775 6.09774 0.674775C3.78524 0.674775 1.75475 2.02843 0.739508 4.02132C0.701906 4.09652 0.683105 4.19053 0.683105 4.28453C0.683105 4.39734 0.701906 4.49134 0.739508 4.56654C1.75475 6.55943 3.78524 7.89429 6.09774 7.89429C8.39144 7.89429 10.4219 6.55943 11.4372 4.56654C11.4748 4.49134 11.4936 4.39734 11.4936 4.30333C11.4936 4.19053 11.4748 4.09652 11.4372 4.02132ZM6.09774 6.99185C4.59367 6.99185 3.39042 5.7886 3.39042 4.28453C3.39042 2.79927 4.59367 1.57721 6.09774 1.57721C7.583 1.57721 8.80506 2.79927 8.80506 4.28453V4.30333C8.80506 5.7886 7.583 7.01065 6.09774 7.01065V6.99185ZM6.09774 2.47965C5.92853 2.49845 5.75932 2.51725 5.60892 2.55486C5.72172 2.70526 5.77813 2.89327 5.77813 3.10008C5.77813 3.5889 5.38331 3.98372 4.89449 3.98372C4.68768 3.98372 4.49967 3.92732 4.34926 3.81451C4.31166 3.96492 4.29286 4.13412 4.29286 4.28453C4.29286 5.28097 5.1013 6.08941 6.09774 6.08941C7.09418 6.08941 7.90262 5.28097 7.90262 4.28453C7.90262 3.28809 7.09418 2.49845 6.09774 2.49845V2.47965Z" fill="#868E96"/>
</svg>
